<?xml version="1.0" standalone="no"?><!DOCTYPE svg PUBLIC "-//W3C//DTD SVG 1.1//EN" "http://www.w3.org/Graphics/SVG/1.1/DTD/svg11.dtd"><svg t="1604824158374" class="icon" viewBox="0 0 1070 1024" version="1.1" xmlns="http://www.w3.org/2000/svg" p-id="2950" xmlns:xlink="http://www.w3.org/1999/xlink" width="133.75" height="128"><defs><style type="text/css"></style></defs><path d="M958.191377 651.636364l-55.668364 38.054233 37.110026 51.2H458.805195v66.074598h611.74026L958.191377 651.636364z m-412.658702 372.363636l60.974546-29.336935-28.346182-55.561974H1070.545455v-66.067948H468.526545L545.539325 1024z" fill="#000000" p-id="2951"></path><path d="M734.427429 669.370182l47.502961-47.323429a490.263273 490.263273 0 0 0-126.450702-62.523844C744.368208 507.046234 804.571429 411.528312 804.571429 301.215584 804.571429 134.86213 669.210597 0 502.225455 0 335.246961 0 199.879481 134.86213 199.879481 301.215584c0 110.312727 60.269714 205.830649 149.158233 258.307325C152.190338 622.359273 13.817351 798.587013 0 1004.051948h67.185039c17.268364-224.302545 205.531429-401.620779 435.040416-401.620779a434.215896 434.215896 0 0 1 232.201974 66.939013zM267.071169 301.215584c0-129.190234 105.485299-234.276571 235.087792-234.276571 129.675636 0 235.227429 105.086338 235.227429 234.276571 0 129.190234-105.485299 234.276571-235.227429 234.276572-129.782026-0.179532-234.941506-104.973299-235.087792-234.276572z" fill="#000000" p-id="2952"></path></svg>