<?xml version="1.0" standalone="no"?><!DOCTYPE svg PUBLIC "-//W3C//DTD SVG 1.1//EN" "http://www.w3.org/Graphics/SVG/1.1/DTD/svg11.dtd"><svg t="1604821066141" class="icon" viewBox="0 0 1177 1024" version="1.1" xmlns="http://www.w3.org/2000/svg" p-id="3625" xmlns:xlink="http://www.w3.org/1999/xlink" width="147.125" height="128"><defs><style type="text/css"></style></defs><path d="M101.967932 1024a27.436287 27.436287 0 0 1-13.610126-3.672574c-30.028692-17.2827-9.505485-62.001688 31.108861-151.223629a724.361181 724.361181 0 0 0 40.182278-98.511392C56.600844 685.691139 0 574.649789 0 457.34346 0 205.232068 263.993249 0 588.691983 0S1177.383966 205.232068 1177.383966 457.34346 913.174684 914.68692 588.691983 914.68692a731.706329 731.706329 0 0 1-266.801688-49.47173 725.225316 725.225316 0 0 0-95.918987 74.099578c-68.698734 58.11308-101.319831 84.685232-124.003376 84.685232zM588.691983 43.206751C287.972996 43.206751 43.206751 228.995781 43.206751 457.34346c0 106.288608 53.144304 207.176371 149.495359 284.516456 22.899578 18.578903 7.129114 55.736709-33.9173 145.390717-11.017722 23.979747-25.491983 55.736709-34.133333 78.852321 21.603376-15.770464 51.2-41.046414 73.451477-59.841351 83.172996-70.427004 112.121519-92.246414 135.23713-82.956962a687.419409 687.419409 0 0 0 255.351899 48.175528c300.718987 0 545.485232-185.78903 545.485232-414.136709S889.41097 43.206751 588.691983 43.206751z" fill="#2c2c2c" p-id="3626"></path><path d="M364.881013 512m-42.55865 0a42.55865 42.55865 0 1 0 85.117299 0 42.55865 42.55865 0 1 0-85.117299 0Z" fill="#2c2c2c" p-id="3627"></path><path d="M588.691983 512m-42.55865 0a42.55865 42.55865 0 1 0 85.1173 0 42.55865 42.55865 0 1 0-85.1173 0Z" fill="#2c2c2c" p-id="3628"></path><path d="M812.28692 512m-42.55865 0a42.55865 42.55865 0 1 0 85.1173 0 42.55865 42.55865 0 1 0-85.1173 0Z" fill="#2c2c2c" p-id="3629"></path></svg>