<?xml version="1.0" standalone="no"?><!DOCTYPE svg PUBLIC "-//W3C//DTD SVG 1.1//EN" "http://www.w3.org/Graphics/SVG/1.1/DTD/svg11.dtd"><svg t="1606125457479" class="icon" viewBox="0 0 1024 1024" version="1.1" xmlns="http://www.w3.org/2000/svg" p-id="4210" xmlns:xlink="http://www.w3.org/1999/xlink" width="128" height="128"><defs><style type="text/css"></style></defs><path d="M772.699311 140.416888l-5.24923-3.280768A65.615368 65.615368 0 0 0 735.954705 131.230737a65.615368 65.615368 0 0 0-65.615369 65.615368 68.896137 68.896137 0 0 0 35.432299 57.741524 351.042221 351.042221 0 1 1-388.44298 0 65.615368 65.615368 0 0 0 34.776145-57.08537 65.615368 65.615368 0 0 0-65.615369-65.615369 71.520752 71.520752 0 0 0-28.870762 6.561537l-7.21769 4.593076a478.992189 478.992189 0 1 0 520.986025 0z m0 0" fill="#E75555" p-id="4211"></path><path d="M512.862452 638.437534a65.615368 65.615368 0 0 0 65.615369-65.615368V65.615368a65.615368 65.615368 0 0 0-129.262276 0v509.175259a65.615368 65.615368 0 0 0 65.615368 65.615368z m0 0" fill="#E75555" p-id="4212"></path></svg>