<?xml version="1.0" standalone="no"?><!DOCTYPE svg PUBLIC "-//W3C//DTD SVG 1.1//EN" "http://www.w3.org/Graphics/SVG/1.1/DTD/svg11.dtd"><svg t="1605970423627" class="icon" viewBox="0 0 1120 1024" version="1.1" xmlns="http://www.w3.org/2000/svg" p-id="3116" xmlns:xlink="http://www.w3.org/1999/xlink" width="140" height="128"><defs><style type="text/css"></style></defs><path d="M160.368063 464.741941l5.79581-2.93554c13.097026-94.614721 74.818642-157.01377 171.23985-168.153769 35.226483-4.064594 67.291616 1.354865 104.625667 15.806756 44.635266-67.442156 117.1958-103.120261 201.272684-113.658099a336.759159 336.759159 0 1 0-587.108056 326.146053c33.721078-26.269322 60.517292-49.226752 104.098775-57.205401z" fill="#C0B1FC" p-id="3117"></path><path d="M15.849157 743.317187a241.768087 241.768087 0 0 0 241.843357 241.918627h571.602382a241.768087 241.768087 0 0 0 87.840397-467.277796l0.225811-5.419459a252.832815 252.832815 0 0 0-464.041175-138.948907 153.852419 153.852419 0 0 0-239.585249 127.884178v4.064594A241.918627 241.918627 0 0 0 15.849157 743.392457z" fill="#AF9CFC" p-id="3118"></path></svg>